<?xml version="1.0" encoding="UTF-8"?>
<svg id="Layer_2" data-name="Layer 2" xmlns="http://www.w3.org/2000/svg" viewBox="0 0 328.1 328.1">
  <defs>
    <style>
      .cls-1 {
        fill: #f15e22;
        stroke-width: 0px;
      }
    </style>
  </defs>
  <g id="Layer_1-2" data-name="Layer 1">
    <g>
      <path class="cls-1" d="M182.7,228.8v64.3c0,19.33-14.6,35.01-32.59,35.01H32.59c-18,0-32.59-15.67-32.59-35.01v-12.39c0-4.65,1.81-9.07,4.85-12.7.01-.02.03-.03.04-.05l23.88-28.71c5.51-6.62,4.36-16.25-2.57-21.51l-13.76-10.45c-7.86-5.97-12.44-15.05-12.44-24.65V35.07C0,.25,42.19-13.22,59.89,15.96l117.52,193.73c3.45,5.69,5.29,12.32,5.29,19.11Z"/>
      <path class="cls-1" d="M150.69,118.41l117.52,193.73c17.7,29.18,59.89,15.71,59.89-19.11v-147.56c0-9.6-4.58-18.67-12.44-24.65l-13.76-10.45c-6.93-5.27-8.08-14.89-2.57-21.51l23.88-28.71s.03-.03.04-.05c3.04-3.63,4.85-8.05,4.85-12.7v-12.39c0-19.33-14.59-35.01-32.59-35.01h-117.52c-17.99,0-32.59,15.67-32.59,35.01v64.3c0,6.79,1.84,13.43,5.29,19.11Z"/>
    </g>
  </g>
</svg>