<?xml version="1.0" encoding="UTF-8"?>
<svg id="Layer_2" data-name="Layer 2" xmlns="http://www.w3.org/2000/svg" xmlns:xlink="http://www.w3.org/1999/xlink" viewBox="0 0 554.4 460.56">
  <defs>
    <style>
      .cls-1 {
        fill: #fff;
        filter: url(#drop-shadow-1);
        stroke-width: 0px;
      }
    </style>
    <filter id="drop-shadow-1" filterUnits="userSpaceOnUse">
      <feOffset dx="7" dy="7"/>
      <feGaussianBlur result="blur" stdDeviation="5"/>
      <feFlood flood-color="#2a2766" flood-opacity=".75"/>
      <feComposite in2="blur" operator="in"/>
      <feComposite in="SourceGraphic"/>
    </filter>
  </defs>
  <g id="Layer_1-2" data-name="Layer 1">
    <path class="cls-1" d="M532.12,349.4h0s-7.1,22.98-21.27,45.79c-33.28,59.78-93.68,59.17-114.02-11.71-7.4-24.04-11.71-56.7-12.94-96.15-.38-13.74-.39-27.64-.17-41.08-4.31,10.35-8.99,21.06-13.99,31.84-17.26,35.75-34.51,64.71-51.77,85.67-23.42,27.73-47.46,41.91-70.88,41.91-15.41,0-27.12-5.55-35.75-16.02-25.27-30.2-11.09-97.38,3.08-167.64,6.16-30.2,12.33-57.93,14.79-81.97,2.47-28.35-.62-40.06-4.31-44.37-1.23-1.23-3.7-3.08-8.63-3.08-25.89,0-63.48,47.46-115.87,227.42-4.93,37.6-91.21,39.44-91.83,12.94-2.46-95.53,4.31-181.2,4.31-181.81,1.85-36.36,86.9-27.73,85.67,13.56,0,.62-1.23,29.58-2.46,86.9,9.86-29.58,20.95-61.02,33.28-88.13,12.94-28.35,25.27-50.54,38.21-65.95,25.27-31.43,80.12-48.69,117.72-23.42,19.72,14.17,30.82,38.83,30.82,68.41s-8.01,66.56-16.64,102.31c-25.89,118.95-11.09,146.07,48.07,22.19,18.67-39.41,32.87-79.37,40.16-101.48.86-10.57,1.57-17.19,1.74-18.08,3.7-20.96,86.28-19.72,85.05,24.04,0,.62-4.31,35.13-4.93,89.98,0,141.75,20.99,116.6,38.53,84.26h0s5.45-12.54,14.18-10.48c6.71,1.58,11.09,7.4,9.86,14.18ZM441.31,104.27c28.74,0,50.54-20.81,50.54-47.57s-21.8-48.56-50.54-48.56c-26.76,0-48.56,20.81-48.56,48.56s21.8,47.57,48.56,47.57Z"/>
  </g>
</svg>